<svg width="78" height="78" viewBox="0 0 78 78" fill="none" xmlns="http://www.w3.org/2000/svg">
<path d="M63.4212 57.869C64.1011 58.5489 64.4831 59.471 64.4831 60.4326C64.4831 61.3941 64.1011 62.3162 63.4212 62.9961C62.7413 63.676 61.8192 64.058 60.8577 64.058C59.8962 64.058 58.974 63.676 58.2941 62.9961L39.1459 43.8418L19.9916 62.9901C19.3117 63.67 18.3895 64.052 17.428 64.052C16.4665 64.052 15.5443 63.67 14.8644 62.9901C14.1845 62.3102 13.8026 61.3881 13.8026 60.4265C13.8026 59.465 14.1845 58.5429 14.8644 57.863L34.0187 38.7147L14.8705 19.5604C14.1906 18.8805 13.8086 17.9584 13.8086 16.9968C13.8086 16.0353 14.1906 15.1132 14.8705 14.4333C15.5504 13.7534 16.4725 13.3714 17.434 13.3714C18.3956 13.3714 19.3177 13.7534 19.9976 14.4333L39.1459 33.5876L58.3002 14.4303C58.9801 13.7504 59.9022 13.3684 60.8637 13.3684C61.8252 13.3684 62.7474 13.7504 63.4273 14.4303C64.1072 15.1102 64.4891 16.0323 64.4891 16.9938C64.4891 17.9553 64.1072 18.8775 63.4273 19.5574L44.273 38.7147L63.4212 57.869Z" fill="black"/>
</svg>
