<svg width="98" height="90" viewBox="0 0 98 90" fill="none" xmlns="http://www.w3.org/2000/svg">
<path d="M33.1054 47.6609H25.8291C23.3009 47.6609 21.4036 49.777 21.4036 52.1976V82.6383C21.4036 85.0589 23.3009 87.175 25.8291 87.175H33.1054C35.6337 87.175 37.5309 85.0589 37.5309 82.6383V52.1976C37.5309 49.777 35.6337 47.6609 33.1054 47.6609ZM13.7018 62.8812H6.42545C3.89723 62.8812 2 64.9973 2 67.418V82.6383C2 85.0589 3.89723 87.175 6.42545 87.175H13.7018C16.23 87.175 18.1273 85.0589 18.1273 82.6383V67.418C18.1273 64.9973 16.23 62.8812 13.7018 62.8812ZM52.5091 32.4406H45.2327C42.7045 32.4406 40.8072 34.5567 40.8072 36.9773V82.6383C40.8072 85.0589 42.7045 87.175 45.2327 87.175H52.5091C55.0373 87.175 56.9345 85.0589 56.9345 82.6383V36.9773C56.9345 34.5567 55.0373 32.4406 52.5091 32.4406ZM71.9127 17.2203H64.6363C62.1081 17.2203 60.2109 19.3364 60.2109 21.757V82.6383C60.2109 85.0589 62.1081 87.175 64.6363 87.175H71.9127C74.4409 87.175 76.3381 85.0589 76.3381 82.6383V21.757C76.3381 19.3364 74.4409 17.2203 71.9127 17.2203ZM91.3163 2H84.0399C81.5117 2 79.6145 4.1161 79.6145 6.53672V82.6383C79.6145 85.0589 81.5117 87.175 84.0399 87.175H91.3163C93.8445 87.175 95.7418 85.0589 95.7418 82.6383V6.53672C95.7418 4.1161 93.8445 2 91.3163 2Z" fill="white" stroke="black" stroke-width="4"/>
<path d="M74.4674 47.1039L68.5703 53.2716L62.6732 47.1039C60.9842 45.3374 58.2079 45.3383 56.5189 47.1033L56.5183 47.1039L54.8865 48.8107L56.332 50.1928L54.8865 48.8107C53.2459 50.5265 53.2467 53.272 54.8859 54.9878L54.8865 54.9884L60.9076 61.2858L54.8865 67.5831L56.332 68.9653L54.8865 67.5831C53.2459 69.299 53.2467 72.0445 54.8859 73.7603L54.8865 73.7609L56.5183 75.4676C58.2071 77.2338 60.9845 77.2338 62.6732 75.4676L68.5703 69.3L74.4674 75.4676C76.1561 77.2338 78.9336 77.2338 80.6223 75.4676L82.2541 73.7609C83.8948 72.045 83.894 69.2996 82.2547 67.5837L82.2541 67.5831L76.233 61.2858L82.2541 54.9884C83.8948 53.2726 83.894 50.5271 82.2547 48.8112L82.2541 48.8107L80.6223 47.1039C78.9332 45.3374 76.157 45.3383 74.468 47.1033L74.4674 47.1039Z" fill="white" stroke="black" stroke-width="4"/>
</svg>
