<svg width="42" height="39" viewBox="0 0 42 39" fill="none" xmlns="http://www.w3.org/2000/svg">
<path d="M29.452 1.92126V9.98363C32.0757 11.5018 34.0733 13.9045 35.0869 16.7613H37.9298C38.4921 16.7613 39.0313 16.9846 39.4289 17.3822C39.8265 17.7798 40.0498 18.319 40.0498 18.8813V23.1213C40.0498 23.6835 39.8265 24.2228 39.4289 24.6204C39.0313 25.0179 38.4921 25.2413 37.9298 25.2413H35.0848C34.3725 27.2553 33.162 29.0573 31.5698 30.4841V34.7813C31.5698 35.6247 31.2348 36.4335 30.6384 37.0299C30.0421 37.6263 29.2332 37.9613 28.3898 37.9613C27.5464 37.9613 26.7376 37.6263 26.1412 37.0299C25.5449 36.4335 25.2098 35.6247 25.2098 34.7813V33.5453C24.5093 33.6627 23.8001 33.7215 23.0898 33.7213H14.6098C13.8995 33.7215 13.1904 33.6627 12.4898 33.5453V34.7813C12.4898 35.6247 12.1548 36.4335 11.5584 37.0299C10.962 37.6263 10.1532 37.9613 9.30981 37.9613C8.46643 37.9613 7.65758 37.6263 7.06121 37.0299C6.46485 36.4335 6.12981 35.6247 6.12981 34.7813V30.4841C4.20901 28.7668 2.85499 26.5067 2.24699 24.0029C1.63899 21.4992 1.80567 18.8698 2.72496 16.4628C3.64426 14.0559 5.27283 11.9849 7.3951 10.5239C9.51738 9.06289 12.0333 8.28086 14.6098 8.28127H19.9098L29.4498 1.92126H29.452Z" stroke="#31FFFB" stroke-width="2" stroke-linecap="round" stroke-linejoin="round"/>
</svg>
